<?xml version="1.0" encoding="utf-8"?>
<!-- Generator: Adobe Illustrator 16.0.0, SVG Export Plug-In . SVG Version: 6.00 Build 0)  -->
<!DOCTYPE svg PUBLIC "-//W3C//DTD SVG 1.1//EN" "http://www.w3.org/Graphics/SVG/1.1/DTD/svg11.dtd">
<svg version="1.1" id="Camada_1" opacity="0.3" xmlns="http://www.w3.org/2000/svg" xmlns:xlink="http://www.w3.org/1999/xlink"
	 x="0px" y="0px" width="830px" height="1603px" viewBox="0 0 830 1603" enable-background="new 0 0 830 1603" xml:space="preserve"
	>
<g enable-background="new    ">
	
		<image overflow="visible" opacity="0.75" width="37" height="44" xlink:href="49D7D35C.png"  transform="matrix(1 0 0 1 23.5 13.0002)">
	</image>
	<g>
		<text transform="matrix(1 0 0 1 38.5 39.0002)" fill="#FFFFFF" font-family="'MyriadPro-Regular'" font-size="12">0</text>
	</g>
</g>
<g enable-background="new    ">
	
		<image overflow="visible" opacity="0.75" width="38" height="46" xlink:href="49D7D35B.png"  transform="matrix(1 0 0 1 515.5 35.0002)">
	</image>
	<g>
		<text transform="matrix(1 0 0 1 531 62.0002)" fill="#FFFFFF" font-family="'MyriadPro-Regular'" font-size="14">0</text>
	</g>
</g>
<g enable-background="new    ">
	
		<image overflow="visible" opacity="0.75" width="40" height="51" xlink:href="49D7D366.png"  transform="matrix(1 0 0 1 310.5 44.0002)">
	</image>
	<g>
		<text transform="matrix(1 0 0 1 325.5 75.0002)" fill="#FFFFFF" font-family="'MyriadPro-Regular'" font-size="18">0</text>
	</g>
</g>
<g enable-background="new    ">
	
		<image overflow="visible" opacity="0.75" width="41" height="54" xlink:href="49D7D369.png"  transform="matrix(1 0 0 1 500.5 182.0002)">
	</image>
	<g>
		<text transform="matrix(1 0 0 1 515.5 215.0002)" fill="#FFFFFF" font-family="'MyriadPro-Regular'" font-size="21">0</text>
	</g>
</g>
<g enable-background="new    ">
	
		<image overflow="visible" opacity="0.75" width="37" height="44" xlink:href="49D7D36A.png"  transform="matrix(1 0 0 1 289.5 122.0002)">
	</image>
	<g>
		<text transform="matrix(1 0 0 1 304.5 148.0002)" fill="#FFFFFF" font-family="'MyriadPro-Regular'" font-size="12">1</text>
	</g>
</g>
<g enable-background="new    ">
	
		<image overflow="visible" opacity="0.75" width="40" height="51" xlink:href="49D7D36B.png"  transform="matrix(1 0 0 1 43.5 8.0002)">
	</image>
	<g>
		<text transform="matrix(1 0 0 1 58.5 39.0002)" fill="#FFFFFF" font-family="'MyriadPro-Regular'" font-size="18">1</text>
	</g>
</g>
<g enable-background="new    ">
	
		<image overflow="visible" opacity="0.75" width="40" height="51" xlink:href="49D7D36E.png"  transform="matrix(1 0 0 1 631.5 127.0002)">
	</image>
	<g>
		<text transform="matrix(1 0 0 1 646.5 158.0002)" fill="#FFFFFF" font-family="'MyriadPro-Regular'" font-size="18">1</text>
	</g>
</g>
<g enable-background="new    ">
	
		<image overflow="visible" opacity="0.75" width="41" height="54" xlink:href="49D7D368.png"  transform="matrix(1 0 0 1 108.5 145.0002)">
	</image>
	<g>
		<text transform="matrix(1 0 0 1 123.5 178.0002)" fill="#FFFFFF" font-family="'MyriadPro-Regular'" font-size="21">1</text>
	</g>
</g>
<g enable-background="new    ">
	
		<image overflow="visible" opacity="0.75" width="40" height="51" xlink:href="49D7D376.png"  transform="matrix(1 0 0 1 524.5 41.0002)">
	</image>
	<g>
		<text transform="matrix(1 0 0 1 540 72.0002)" fill="#FFFFFF" font-family="'MyriadPro-Regular'" font-size="18">1</text>
	</g>
</g>
<g enable-background="new    ">
	
		<image overflow="visible" opacity="0.75" width="40" height="51" xlink:href="AC318CCD.png"  transform="matrix(1 0 0 1 123.5 251.0002)">
	</image>
	<g>
		<text transform="matrix(1 0 0 1 138.5 282.0002)" fill="#FFFFFF" font-family="'MyriadPro-Regular'" font-size="18">0</text>
	</g>
</g>
<g enable-background="new    ">
	
		<image overflow="visible" opacity="0.75" width="41" height="54" xlink:href="AC318CCA.png"  transform="matrix(1 0 0 1 439.5 319.0002)">
	</image>
	<g>
		<text transform="matrix(1 0 0 1 454.5 352.0002)" fill="#FFFFFF" font-family="'MyriadPro-Regular'" font-size="21">0</text>
	</g>
</g>
<g enable-background="new    ">
	
		<image overflow="visible" opacity="0.75" width="40" height="51" xlink:href="AC318CC6.png"  transform="matrix(1 0 0 1 733.5 365.0002)">
	</image>
	<g>
		<text transform="matrix(1 0 0 1 748.5 396.0002)" fill="#FFFFFF" font-family="'MyriadPro-Regular'" font-size="18">1</text>
	</g>
</g>
<g enable-background="new    ">
	
		<image overflow="visible" opacity="0.75" width="41" height="54" xlink:href="AC318CD9.png"  transform="matrix(1 0 0 1 76.5 363.0002)">
	</image>
	<g>
		<text transform="matrix(1 0 0 1 91.5 396.0002)" fill="#FFFFFF" font-family="'MyriadPro-Regular'" font-size="21">0</text>
	</g>
</g>
<g enable-background="new    ">
	
		<image overflow="visible" opacity="0.75" width="37" height="44" xlink:href="AC318CD8.png"  transform="matrix(1 0 0 1 266.5 410.0002)">
	</image>
	<g>
		<text transform="matrix(1 0 0 1 281.5 436.0002)" fill="#FFFFFF" font-family="'MyriadPro-Regular'" font-size="12">1</text>
	</g>
</g>
<g enable-background="new    ">
	
		<image overflow="visible" opacity="0.75" width="38" height="46" xlink:href="AC318CDE.png"  transform="matrix(1 0 0 1 618.5 470.0002)">
	</image>
	<g>
		<text transform="matrix(1 0 0 1 633.5 497.0002)" fill="#FFFFFF" font-family="'MyriadPro-Regular'" font-size="14">0</text>
	</g>
</g>
<g enable-background="new    ">
	
		<image overflow="visible" opacity="0.75" width="41" height="54" xlink:href="AC318CD4.png"  transform="matrix(1 0 0 1 409.5 539.0002)">
	</image>
	<g>
		<text transform="matrix(1 0 0 1 424.5 572.0002)" fill="#FFFFFF" font-family="'MyriadPro-Regular'" font-size="21">1</text>
	</g>
</g>
<g enable-background="new    ">
	
		<image overflow="visible" opacity="0.75" width="37" height="44" xlink:href="AC318CD5.png"  transform="matrix(1 0 0 1 96.5 629.0002)">
	</image>
	<g>
		<text transform="matrix(1 0 0 1 111.5 655.0002)" fill="#FFFFFF" font-family="'MyriadPro-Regular'" font-size="12">0</text>
	</g>
</g>
<g enable-background="new    ">
	
		<image overflow="visible" opacity="0.75" width="40" height="51" xlink:href="AC318CD6.png"  transform="matrix(1 0 0 1 609.5 287.0002)">
	</image>
	<g>
		<text transform="matrix(1 0 0 1 624.5 318.0002)" fill="#FFFFFF" font-family="'MyriadPro-Regular'" font-size="18">1</text>
	</g>
</g>
<g enable-background="new    ">
	
		<image overflow="visible" opacity="0.75" width="41" height="54" xlink:href="AC318CD7.png"  transform="matrix(1 0 0 1 531.5 622.0002)">
	</image>
	<g>
		<text transform="matrix(1 0 0 1 546.5 655.0002)" fill="#FFFFFF" font-family="'MyriadPro-Regular'" font-size="21">0</text>
	</g>
</g>
<g enable-background="new    ">
	
		<image overflow="visible" opacity="0.75" width="37" height="44" xlink:href="AC318CFE.png"  transform="matrix(1 0 0 1 91.5 526.0002)">
	</image>
	<g>
		<text transform="matrix(1 0 0 1 106.5 552.0002)" fill="#FFFFFF" font-family="'MyriadPro-Regular'" font-size="12">1</text>
	</g>
</g>
<g enable-background="new    ">
	
		<image overflow="visible" opacity="0.75" width="42" height="54" xlink:href="AC318CFA.png"  transform="matrix(1 0 0 1 -15.5 694.0002)">
	</image>
	<g>
		<text transform="matrix(1 0 0 1 0 727.0002)" fill="#FFFFFF" font-family="'MyriadPro-Regular'" font-size="21">1</text>
	</g>
</g>
<g enable-background="new    ">
	
		<image overflow="visible" opacity="0.75" width="40" height="51" xlink:href="AC318CF5.png"  transform="matrix(1 0 0 1 236.5 521.0002)">
	</image>
	<g>
		<text transform="matrix(1 0 0 1 251.5 552.0002)" fill="#FFFFFF" font-family="'MyriadPro-Regular'" font-size="18">0</text>
	</g>
</g>
<g enable-background="new    ">
	
		<image overflow="visible" opacity="0.75" width="41" height="54" xlink:href="AC318CF4.png"  transform="matrix(1 0 0 1 254.5 273.0002)">
	</image>
	<g>
		<text transform="matrix(1 0 0 1 269.5 306.0002)" fill="#FFFFFF" font-family="'MyriadPro-Regular'" font-size="21">1</text>
	</g>
</g>
<g enable-background="new    ">
	
		<image overflow="visible" opacity="0.75" width="41" height="54" xlink:href="AC318CF3.png"  transform="matrix(1 0 0 1 748.5 610.0002)">
	</image>
	<g>
		<text transform="matrix(1 0 0 1 763.5 643.0002)" fill="#FFFFFF" font-family="'MyriadPro-Regular'" font-size="21">0</text>
	</g>
</g>
<g enable-background="new    ">
	
		<image overflow="visible" opacity="0.75" width="40" height="51" xlink:href="AC318CEC.png"  transform="matrix(1 0 0 1 384.5 707.0002)">
	</image>
	<g>
		<text transform="matrix(1 0 0 1 399.5 738.0002)" fill="#FFFFFF" font-family="'MyriadPro-Regular'" font-size="18">1</text>
	</g>
</g>
<g enable-background="new    ">
	
		<image overflow="visible" opacity="0.75" width="38" height="46" xlink:href="AC318CED.png"  transform="matrix(1 0 0 1 485.5 444.0002)">
	</image>
	<g>
		<text transform="matrix(1 0 0 1 500.5 471.0002)" fill="#FFFFFF" font-family="'MyriadPro-Regular'" font-size="14">0</text>
	</g>
</g>
<g enable-background="new    ">
	
		<image overflow="visible" opacity="0.75" width="37" height="44" xlink:href="AC318CD2.png"  transform="matrix(1 0 0 1 151.5 729.0002)">
	</image>
	<g>
		<text transform="matrix(1 0 0 1 166.5 755.0002)" fill="#FFFFFF" font-family="'MyriadPro-Regular'" font-size="12">0</text>
	</g>
</g>
<g enable-background="new    ">
	
		<image overflow="visible" opacity="0.75" width="41" height="54" xlink:href="AC318CD3.png"  transform="matrix(1 0 0 1 266.5 802.0002)">
	</image>
	<g>
		<text transform="matrix(1 0 0 1 281.5 835.0002)" fill="#FFFFFF" font-family="'MyriadPro-Regular'" font-size="21">1</text>
	</g>
</g>
<g enable-background="new    ">
	
		<image overflow="visible" opacity="0.75" width="42" height="54" xlink:href="AC318CD0.png"  transform="matrix(1 0 0 1 -15.5 496.0002)">
	</image>
	<g>
		<text transform="matrix(1 0 0 1 0 529.0002)" fill="#FFFFFF" font-family="'MyriadPro-Regular'" font-size="21">0</text>
	</g>
</g>
<g enable-background="new    ">
	
		<image overflow="visible" opacity="0.75" width="41" height="54" xlink:href="AC318D37.png"  transform="matrix(1 0 0 1 562.5 781.0002)">
	</image>
	<g>
		<text transform="matrix(1 0 0 1 577.5 814.0002)" fill="#FFFFFF" font-family="'MyriadPro-Regular'" font-size="21">1</text>
	</g>
</g>
<g enable-background="new    ">
	
		<image overflow="visible" opacity="0.75" width="38" height="46" xlink:href="AC318D39.png"  transform="matrix(1 0 0 1 706.5 762.0002)">
	</image>
	<g>
		<text transform="matrix(1 0 0 1 721.5 789.0002)" fill="#FFFFFF" font-family="'MyriadPro-Regular'" font-size="14">0</text>
	</g>
</g>
<g enable-background="new    ">
	
		<image overflow="visible" opacity="0.75" width="38" height="46" xlink:href="AC318D3A.png"  transform="matrix(1 0 0 1 421.5 871.0002)">
	</image>
	<g>
		<text transform="matrix(1 0 0 1 436.5 898.0002)" fill="#FFFFFF" font-family="'MyriadPro-Regular'" font-size="14">0</text>
	</g>
</g>
<g enable-background="new    ">
	
		<image overflow="visible" opacity="0.75" width="37" height="44" xlink:href="AC318D3B.png"  transform="matrix(1 0 0 1 61.5 833.0002)">
	</image>
	<g>
		<text transform="matrix(1 0 0 1 76.5 859.0002)" fill="#FFFFFF" font-family="'MyriadPro-Regular'" font-size="12">1</text>
	</g>
</g>
<g enable-background="new    ">
	
		<image overflow="visible" opacity="0.75" width="38" height="46" xlink:href="AC318D3C.png"  transform="matrix(1 0 0 1 -1.5 963.0002)">
	</image>
	<g>
		<text transform="matrix(1 0 0 1 13.5 990.0002)" fill="#FFFFFF" font-family="'MyriadPro-Regular'" font-size="14">0</text>
	</g>
</g>
<g enable-background="new    ">
	
		<image overflow="visible" opacity="0.75" width="38" height="46" xlink:href="AC318D3D.png"  transform="matrix(1 0 0 1 684.5 911.0002)">
	</image>
	<g>
		<text transform="matrix(1 0 0 1 699.5 938.0002)" fill="#FFFFFF" font-family="'MyriadPro-Regular'" font-size="14">0</text>
	</g>
</g>
<g enable-background="new    ">
	
		<image overflow="visible" opacity="0.75" width="41" height="54" xlink:href="AC318D38.png"  transform="matrix(1 0 0 1 542.5 1002.0002)">
	</image>
	<g>
		<text transform="matrix(1 0 0 1 557.5 1035.0002)" fill="#FFFFFF" font-family="'MyriadPro-Regular'" font-size="21">0</text>
	</g>
</g>
<g enable-background="new    ">
	
		<image overflow="visible" opacity="0.75" width="41" height="54" xlink:href="AC318D27.png"  transform="matrix(1 0 0 1 439.5 884.0002)">
	</image>
	<g>
		<text transform="matrix(1 0 0 1 454.5 917.0002)" fill="#FFFFFF" font-family="'MyriadPro-Regular'" font-size="21">1</text>
	</g>
</g>
<g enable-background="new    ">
	
		<image overflow="visible" opacity="0.75" width="41" height="54" xlink:href="AC318D28.png"  transform="matrix(1 0 0 1 396.5 700.0002)">
	</image>
	<g>
		<text transform="matrix(1 0 0 1 411.5 733.0002)" fill="#FFFFFF" font-family="'MyriadPro-Regular'" font-size="21">0</text>
	</g>
</g>
<g enable-background="new    ">
	
		<image overflow="visible" opacity="0.75" width="42" height="54" xlink:href="AC318D29.png"  transform="matrix(1 0 0 1 399.5 872.0002)">
	</image>
	<g>
		<text transform="matrix(1 0 0 1 415 905.0002)" fill="#FFFFFF" font-family="'MyriadPro-Regular'" font-size="21">1</text>
	</g>
</g>
<g enable-background="new    ">
	
		<image overflow="visible" opacity="0.75" width="37" height="44" xlink:href="AC318D1E.png"  transform="matrix(1 0 0 1 660.5 599.0002)">
	</image>
	<g>
		<text transform="matrix(1 0 0 1 675.5 625.0002)" fill="#FFFFFF" font-family="'MyriadPro-Regular'" font-size="12">0</text>
	</g>
</g>
<g enable-background="new    ">
	
		<image overflow="visible" opacity="0.75" width="38" height="46" xlink:href="AC318D1A.png"  transform="matrix(1 0 0 1 725.5 1088.0002)">
	</image>
	<g>
		<text transform="matrix(1 0 0 1 740.5 1115.0002)" fill="#FFFFFF" font-family="'MyriadPro-Regular'" font-size="14">0</text>
	</g>
</g>
<g enable-background="new    ">
	
		<image overflow="visible" opacity="0.75" width="37" height="44" xlink:href="AC318D1B.png"  transform="matrix(1 0 0 1 296.5 986.0002)">
	</image>
	<g>
		<text transform="matrix(1 0 0 1 311.5 1012.0002)" fill="#FFFFFF" font-family="'MyriadPro-Regular'" font-size="12">1</text>
	</g>
</g>
<g enable-background="new    ">
	
		<image overflow="visible" opacity="0.75" width="37" height="44" xlink:href="AC318D16.png"  transform="matrix(1 0 0 1 655.5 994.0002)">
	</image>
	<g>
		<text transform="matrix(1 0 0 1 670.5 1020.0002)" fill="#FFFFFF" font-family="'MyriadPro-Regular'" font-size="12">1</text>
	</g>
</g>
<g enable-background="new    ">
	
		<image overflow="visible" opacity="0.75" width="37" height="44" xlink:href="AC318D09.png"  transform="matrix(1 0 0 1 780.5 850.0002)">
	</image>
	<g>
		<text transform="matrix(1 0 0 1 795.5 876.0002)" fill="#FFFFFF" font-family="'MyriadPro-Regular'" font-size="12">1</text>
	</g>
</g>
<g enable-background="new    ">
	
		<image overflow="visible" opacity="0.75" width="37" height="44" xlink:href="AC318D0A.png"  transform="matrix(1 0 0 1 780.5 1009.0002)">
	</image>
	<g>
		<text transform="matrix(1 0 0 1 795.5 1035.0002)" fill="#FFFFFF" font-family="'MyriadPro-Regular'" font-size="12">1</text>
	</g>
</g>
<g enable-background="new    ">
	
		<image overflow="visible" opacity="0.75" width="41" height="54" xlink:href="AC318D0B.png"  transform="matrix(1 0 0 1 396.5 992.0002)">
	</image>
	<g>
		<text transform="matrix(1 0 0 1 411.5 1025.0002)" fill="#FFFFFF" font-family="'MyriadPro-Regular'" font-size="21">0</text>
	</g>
</g>
<g enable-background="new    ">
	
		<image overflow="visible" opacity="0.75" width="42" height="54" xlink:href="AC318D08.png"  transform="matrix(1 0 0 1 155.5 928.0002)">
	</image>
	<g>
		<text transform="matrix(1 0 0 1 171 961.0002)" fill="#FFFFFF" font-family="'MyriadPro-Regular'" font-size="21">1</text>
	</g>
</g>
<g enable-background="new    ">
	
		<image overflow="visible" opacity="0.75" width="41" height="54" xlink:href="AC318D05.png"  transform="matrix(1 0 0 1 520.5 1127.0002)">
	</image>
	<g>
		<text transform="matrix(1 0 0 1 535.5 1160.0002)" fill="#FFFFFF" font-family="'MyriadPro-Regular'" font-size="21">0</text>
	</g>
</g>
<g enable-background="new    ">
	
		<image overflow="visible" opacity="0.75" width="42" height="54" xlink:href="AC318D06.png"  transform="matrix(1 0 0 1 343.5 1137.0002)">
	</image>
	<g>
		<text transform="matrix(1 0 0 1 359 1170.0002)" fill="#FFFFFF" font-family="'MyriadPro-Regular'" font-size="21">1</text>
	</g>
</g>
<g enable-background="new    ">
	
		<image overflow="visible" opacity="0.75" width="41" height="54" xlink:href="AC318D6E.png"  transform="matrix(1 0 0 1 674.5 1166.0002)">
	</image>
	<g>
		<text transform="matrix(1 0 0 1 689.5 1199.0002)" fill="#FFFFFF" font-family="'MyriadPro-Regular'" font-size="21">1</text>
	</g>
</g>
<g enable-background="new    ">
	
		<image overflow="visible" opacity="0.75" width="38" height="46" xlink:href="AC318D6D.png"  transform="matrix(1 0 0 1 219.5 1077.0002)">
	</image>
	<g>
		<text transform="matrix(1 0 0 1 234.5 1104.0002)" fill="#FFFFFF" font-family="'MyriadPro-Regular'" font-size="14">0</text>
	</g>
</g>
<g enable-background="new    ">
	
		<image overflow="visible" opacity="0.75" width="41" height="54" xlink:href="AC318D6A.png"  transform="matrix(1 0 0 1 67.5 1038.0002)">
	</image>
	<g>
		<text transform="matrix(1 0 0 1 82.5 1071.0002)" fill="#FFFFFF" font-family="'MyriadPro-Regular'" font-size="21">0</text>
	</g>
</g>
<g enable-background="new    ">
	
		<image overflow="visible" opacity="0.75" width="41" height="54" xlink:href="AC318D65.png"  transform="matrix(1 0 0 1 123.5 1151.0002)">
	</image>
	<g>
		<text transform="matrix(1 0 0 1 138.5 1184.0002)" fill="#FFFFFF" font-family="'MyriadPro-Regular'" font-size="21">1</text>
	</g>
</g>
<g enable-background="new    ">
	
		<image overflow="visible" opacity="0.75" width="38" height="46" xlink:href="AC318D64.png"  transform="matrix(1 0 0 1 674.5 1184.0002)">
	</image>
	<g>
		<text transform="matrix(1 0 0 1 689.5 1211.0002)" fill="#FFFFFF" font-family="'MyriadPro-Regular'" font-size="14">0</text>
	</g>
</g>
<g enable-background="new    ">
	
		<image overflow="visible" opacity="0.75" width="37" height="44" xlink:href="AC318D63.png"  transform="matrix(1 0 0 1 448.5 1267.0002)">
	</image>
	<g>
		<text transform="matrix(1 0 0 1 463.5 1293.0002)" fill="#FFFFFF" font-family="'MyriadPro-Regular'" font-size="12">1</text>
	</g>
</g>
<g enable-background="new    ">
	
		<image overflow="visible" opacity="0.75" width="38" height="46" xlink:href="AC318D5A.png"  transform="matrix(1 0 0 1 573.5 1220.0002)">
	</image>
	<g>
		<text transform="matrix(1 0 0 1 588.5 1247.0002)" fill="#FFFFFF" font-family="'MyriadPro-Regular'" font-size="14">0</text>
	</g>
</g>
<g enable-background="new    ">
	
		<image overflow="visible" opacity="0.75" width="38" height="46" xlink:href="AC318D5D.png"  transform="matrix(1 0 0 1 660.5 1346.0002)">
	</image>
	<g>
		<text transform="matrix(1 0 0 1 675.5 1373.0002)" fill="#FFFFFF" font-family="'MyriadPro-Regular'" font-size="14">0</text>
	</g>
</g>
<g enable-background="new    ">
	
		<image overflow="visible" opacity="0.75" width="37" height="44" xlink:href="AC318D5E.png"  transform="matrix(1 0 0 1 304.5 1327.0002)">
	</image>
	<g>
		<text transform="matrix(1 0 0 1 319.5 1353.0002)" fill="#FFFFFF" font-family="'MyriadPro-Regular'" font-size="12">1</text>
	</g>
</g>
<g enable-background="new    ">
	
		<image overflow="visible" opacity="0.75" width="41" height="54" xlink:href="AC318D5C.png"  transform="matrix(1 0 0 1 23.5 1201.0002)">
	</image>
	<g>
		<text transform="matrix(1 0 0 1 38.5 1234.0002)" fill="#FFFFFF" font-family="'MyriadPro-Regular'" font-size="21">0</text>
	</g>
</g>
<g enable-background="new    ">
	
		<image overflow="visible" opacity="0.75" width="42" height="54" xlink:href="AC318D42.png"  transform="matrix(1 0 0 1 140.5 1320.0002)">
	</image>
	<g>
		<text transform="matrix(1 0 0 1 156 1353.0002)" fill="#FFFFFF" font-family="'MyriadPro-Regular'" font-size="21">1</text>
	</g>
</g>
<g enable-background="new    ">
	
		<image overflow="visible" opacity="0.75" width="37" height="44" xlink:href="AC318DBE.png"  transform="matrix(1 0 0 1 485.5 1379.0002)">
	</image>
	<g>
		<text transform="matrix(1 0 0 1 500.5 1405.0002)" fill="#FFFFFF" font-family="'MyriadPro-Regular'" font-size="12">1</text>
	</g>
</g>
<g enable-background="new    ">
	
		<image overflow="visible" opacity="0.75" width="38" height="46" xlink:href="AC318DC4.png"  transform="matrix(1 0 0 1 296.5 1350.0002)">
	</image>
	<g>
		<text transform="matrix(1 0 0 1 311.5 1377.0002)" fill="#FFFFFF" font-family="'MyriadPro-Regular'" font-size="14">0</text>
	</g>
</g>
<g enable-background="new    ">
	
		<image overflow="visible" opacity="0.75" width="38" height="46" xlink:href="AC318DC6.png"  transform="matrix(1 0 0 1 780.5 1326.0002)">
	</image>
	<g>
		<text transform="matrix(1 0 0 1 795.5 1353.0002)" fill="#FFFFFF" font-family="'MyriadPro-Regular'" font-size="14">0</text>
	</g>
</g>
<g enable-background="new    ">
	
		<image overflow="visible" opacity="0.75" width="41" height="54" xlink:href="AC318DCB.png"  transform="matrix(1 0 0 1 631.5 1439.0002)">
	</image>
	<g>
		<text transform="matrix(1 0 0 1 646.5 1472.0002)" fill="#FFFFFF" font-family="'MyriadPro-Regular'" font-size="21">1</text>
	</g>
</g>
<g enable-background="new    ">
	
		<image overflow="visible" opacity="0.75" width="38" height="46" xlink:href="AC318DCC.png"  transform="matrix(1 0 0 1 310.5 1350.0002)">
	</image>
	<g>
		<text transform="matrix(1 0 0 1 325.5 1377.0002)" fill="#FFFFFF" font-family="'MyriadPro-Regular'" font-size="14">0</text>
	</g>
</g>
<g enable-background="new    ">
	
		<image overflow="visible" opacity="0.75" width="42" height="54" xlink:href="AC318DCF.png"  transform="matrix(1 0 0 1 140.5 1451.0002)">
	</image>
	<g>
		<text transform="matrix(1 0 0 1 156 1484.0002)" fill="#FFFFFF" font-family="'MyriadPro-Regular'" font-size="21">1</text>
	</g>
</g>
<g enable-background="new    ">
	
		<image overflow="visible" opacity="0.75" width="38" height="46" xlink:href="AC318DCE.png"  transform="matrix(1 0 0 1 11.5 1370.0002)">
	</image>
	<g>
		<text transform="matrix(1 0 0 1 26.5 1397.0002)" fill="#FFFFFF" font-family="'MyriadPro-Regular'" font-size="14">0</text>
	</g>
</g>
<g enable-background="new    ">
	
		<image overflow="visible" opacity="0.75" width="37" height="44" xlink:href="AC318DCA.png"  transform="matrix(1 0 0 1 289.5 1494.0002)">
	</image>
	<g>
		<text transform="matrix(1 0 0 1 304.5 1520.0002)" fill="#FFFFFF" font-family="'MyriadPro-Regular'" font-size="12">1</text>
	</g>
</g>
<g enable-background="new    ">
	
		<image overflow="visible" opacity="0.75" width="41" height="54" xlink:href="AC318DD8.png"  transform="matrix(1 0 0 1 474.5 1509.0002)">
	</image>
	<g>
		<text transform="matrix(1 0 0 1 489.5 1542.0002)" fill="#FFFFFF" font-family="'MyriadPro-Regular'" font-size="21">0</text>
	</g>
</g>
<g enable-background="new    ">
	
		<image overflow="visible" opacity="0.75" width="37" height="44" xlink:href="AC318DEF.png"  transform="matrix(1 0 0 1 52.5 1516.0002)">
	</image>
	<g>
		<text transform="matrix(1 0 0 1 67.5 1542.0002)" fill="#FFFFFF" font-family="'MyriadPro-Regular'" font-size="12">1</text>
	</g>
</g>
<g enable-background="new    ">
	
		<image overflow="visible" opacity="0.75" width="38" height="46" xlink:href="AC318DE9.png"  transform="matrix(1 0 0 1 147.5 1493.0002)">
	</image>
	<g>
		<text transform="matrix(1 0 0 1 162.5 1520.0002)" fill="#FFFFFF" font-family="'MyriadPro-Regular'" font-size="14">0</text>
	</g>
</g>
<g enable-background="new    ">
	
		<image overflow="visible" opacity="0.75" width="38" height="46" xlink:href="AC318DEA.png"  transform="matrix(1 0 0 1 618.5 1547.0002)">
	</image>
	<g>
		<text transform="matrix(1 0 0 1 633.5 1574.0002)" fill="#FFFFFF" font-family="'MyriadPro-Regular'" font-size="14">0</text>
	</g>
</g>
<g enable-background="new    ">
	
		<image overflow="visible" opacity="0.75" width="37" height="44" xlink:href="AC318DEB.png"  transform="matrix(1 0 0 1 780.5 1483.0002)">
	</image>
	<g>
		<text transform="matrix(1 0 0 1 795.5 1509.0002)" fill="#FFFFFF" font-family="'MyriadPro-Regular'" font-size="12">1</text>
	</g>
</g>
<g enable-background="new    ">
	
		<image overflow="visible" opacity="0.75" width="37" height="44" xlink:href="AC318DE7.png"  transform="matrix(1 0 0 1 161.5 738.0002)">
	</image>
	<g>
		<text transform="matrix(1 0 0 1 176.5 764.0002)" fill="#FFFFFF" font-family="'MyriadPro-Regular'" font-size="12">1</text>
	</g>
</g>
<g enable-background="new    ">
	
		<image overflow="visible" opacity="0.75" width="37" height="44" xlink:href="AC318DF9.png"  transform="matrix(1 0 0 1 76.5 350.0002)">
	</image>
	<g>
		<text transform="matrix(1 0 0 1 91.5 376.0002)" fill="#FFFFFF" font-family="'MyriadPro-Regular'" font-size="12">1</text>
	</g>
</g>
<g enable-background="new    ">
	
		<image overflow="visible" opacity="0.75" width="37" height="44" xlink:href="AC318DFA.png"  transform="matrix(1 0 0 1 384.5 201.0002)">
	</image>
	<g>
		<text transform="matrix(1 0 0 1 399.5 227.0002)" fill="#FFFFFF" font-family="'MyriadPro-Regular'" font-size="12">0</text>
	</g>
</g>
<g enable-background="new    ">
	
		<image overflow="visible" opacity="0.75" width="40" height="51" xlink:href="AC318DFB.png"  transform="matrix(1 0 0 1 370.5 196.0002)">
	</image>
	<g>
		<text transform="matrix(1 0 0 1 385.5 227.0002)" fill="#FFFFFF" font-family="'MyriadPro-Regular'" font-size="18">1</text>
	</g>
</g>
<g enable-background="new    ">
	
		<image overflow="visible" opacity="0.75" width="37" height="44" xlink:href="AC318DFE.png"  transform="matrix(1 0 0 1 229.5 1246.0002)">
	</image>
	<g>
		<text transform="matrix(1 0 0 1 244.5 1272.0002)" fill="#FFFFFF" font-family="'MyriadPro-Regular'" font-size="12">1</text>
	</g>
</g>
<g enable-background="new    ">
	
		<image overflow="visible" opacity="0.75" width="38" height="46" xlink:href="AC318DFF.png"  transform="matrix(1 0 0 1 254.5 1215.0002)">
	</image>
	<g>
		<text transform="matrix(1 0 0 1 269.5 1242.0002)" fill="#FFFFFF" font-family="'MyriadPro-Regular'" font-size="14">0</text>
	</g>
</g>
<g enable-background="new    ">
	
		<image overflow="visible" opacity="0.75" width="37" height="44" xlink:href="AC318D9A.png"  transform="matrix(1 0 0 1 282.5 639.0002)">
	</image>
	<g>
		<text transform="matrix(1 0 0 1 297.5 665.0002)" fill="#FFFFFF" font-family="'MyriadPro-Regular'" font-size="12">1</text>
	</g>
</g>
<g enable-background="new    ">
	
		<image overflow="visible" opacity="0.75" width="37" height="44" xlink:href="AC318D9E.png"  transform="matrix(1 0 0 1 771.5 41.0002)">
	</image>
	<g>
		<text transform="matrix(1 0 0 1 786.5 67.0002)" fill="#FFFFFF" font-family="'MyriadPro-Regular'" font-size="12">0</text>
	</g>
</g>
<g enable-background="new    ">
	
		<image overflow="visible" opacity="0.75" width="37" height="44" xlink:href="AC318D9F.png"  transform="matrix(1 0 0 1 695.5 201.0002)">
	</image>
	<g>
		<text transform="matrix(1 0 0 1 710.5 227.0002)" fill="#FFFFFF" font-family="'MyriadPro-Regular'" font-size="12">0</text>
	</g>
</g>
</svg>
